<?xml version="1.0" encoding="utf-8"?>
<!-- Generator: Adobe Illustrator 21.0.2, SVG Export Plug-In . SVG Version: 6.00 Build 0)  -->
<svg version="1.1" id="Capa_1" xmlns="http://www.w3.org/2000/svg" xmlns:xlink="http://www.w3.org/1999/xlink" x="0px" y="0px"
	 viewBox="0 0 397.6 397.6" style="enable-background:new 0 0 397.6 397.6;" xml:space="preserve">
<style type="text/css">
	.st0{fill:#3F51B5;}
</style>
<g>
	<path class="st0" d="M15.3,346.1h367c8.4,0,15.3-6.9,15.3-15.3c0-8.4-6.9-15.3-15.3-15.3H30.6V143.1c0-8.4-6.9-15.3-15.3-15.3
		c-8.4,0-15.3,6.9-15.3,15.3v187.7C0,339.3,6.9,346.1,15.3,346.1z"/>
	<path class="st0" d="M163,160.9c-15.1,0-27.4,12.2-27.4,27.4v79.8c0,15.1,12.2,27.4,27.4,27.4h4.1c15.1,0,27.4-12.2,27.4-27.4
		v-79.8c0-15.1-12.3-27.4-27.4-27.4L163,160.9L163,160.9z"/>
	<path class="st0" d="M256.7,115.3h-4.1c-15.1,0-27.4,12.3-27.4,27.4v125.4c0,15.1,12.2,27.4,27.4,27.4h4.1
		c15.1,0,27.4-12.2,27.4-27.4V142.6C284.1,127.5,271.9,115.3,256.7,115.3z"/>
	<path class="st0" d="M346.4,51.4h-4.1c-15.1,0-27.4,12.2-27.4,27.4v189.3c0,15.1,12.2,27.4,27.4,27.4h4.1
		c15.1,0,27.4-12.2,27.4-27.4V78.8C373.8,63.7,361.6,51.4,346.4,51.4z"/>
	<path class="st0" d="M78.7,193.6c-15.1,0-27.4,12.3-27.4,27.4v47.1c0,15.1,12.3,27.4,27.4,27.4h4.1c15.1,0,27.4-12.2,27.4-27.4V221
		c0-15.1-12.3-27.4-27.4-27.4L78.7,193.6L78.7,193.6z"/>
</g>
</svg>
