<?xml version="1.0" encoding="utf-8"?>
<!-- Generator: Adobe Illustrator 21.0.2, SVG Export Plug-In . SVG Version: 6.00 Build 0)  -->
<svg version="1.1" id="Layer_1" xmlns="http://www.w3.org/2000/svg" xmlns:xlink="http://www.w3.org/1999/xlink" x="0px" y="0px"
	 viewBox="0 0 512 512" style="enable-background:new 0 0 512 512;" xml:space="preserve">
<style type="text/css">
	.st0{fill:#3F51B5;}
</style>
<g>
	<g>
		<path class="st0" d="M473.4,58.4c-3.3-3.3-7.8-5.1-12.4-4.9l-51.6,1.7c-9.3,0.3-16.5,8.1-16.2,17.3s8.1,16.5,17.3,16.2l7.4-0.2
			l-92.3,73.6L215.2,81.8c-5.6-4-13-4.3-18.9-0.6L30.1,186.8c-7.8,5-10.1,15.3-5.2,23.2c3.2,5,8.6,7.8,14.2,7.8c3.1,0,6.2-0.8,9-2.6
			l156.6-99.4l111.6,81.1c6.1,4.4,14.4,4.2,20.3-0.5l106.8-85.2l-0.3,10.1c-0.3,9.3,6.9,17,16.2,17.3c0.2,0,0.4,0,0.6,0
			c9,0,16.5-7.1,16.8-16.2l1.7-51.6C478.5,66.2,476.7,61.7,473.4,58.4z"/>
	</g>
</g>
<g>
	<g>
		<path class="st0" d="M495.2,425h-5.6V218.6c0-16.4-13.3-29.7-29.7-29.7h-35.6c-16.4,0-29.7,13.3-29.7,29.7V425h-20.8V295.8
			c0-16.4-13.3-29.7-29.7-29.7h-35.6c-16.4,0-29.7,13.3-29.7,29.7V425h-20.8V224.3c0-16.4-13.3-29.7-29.7-29.7h-35.7
			c-16.4,0-29.7,13.3-29.7,29.7V425h-20.8v-63c0-16.4-13.3-29.7-29.7-29.7H76.5c-16.4,0-29.7,13.3-29.7,29.7v63H16.8
			C7.5,425,0,432.5,0,441.7c0,9.3,7.5,16.8,16.8,16.8h478.4c9.3,0,16.8-7.5,16.8-16.8C512,432.5,504.5,425,495.2,425z M108.3,425
			h-28v-59.2h28C108.3,365.7,108.3,425,108.3,425z M224.2,425h-28V228.1h28V425z M340.2,425h-28V299.6h28V425z M456.1,425h-28V222.4
			h28V425z"/>
	</g>
</g>
</svg>
