<?xml version="1.0" encoding="utf-8"?>
<!-- Generator: Adobe Illustrator 21.0.2, SVG Export Plug-In . SVG Version: 6.00 Build 0)  -->
<svg version="1.1" id="Capa_1" xmlns="http://www.w3.org/2000/svg" xmlns:xlink="http://www.w3.org/1999/xlink" x="0px" y="0px"
	 viewBox="0 0 371 371" style="enable-background:new 0 0 371 371;" xml:space="preserve">
<style type="text/css">
	.st0{fill:#D71D5E;}
</style>
<g>
	<path class="st0" d="M190,170.2c1.1,1.1,2.5,1.7,4,1.7h170.8c1.6,0,3.2-0.7,4.2-1.9c1.1-1.2,1.6-2.8,1.4-4.4
		c-4.9-45.8-26.3-87.8-60.2-118.2C276.3,16.8,232.2,0,186,0c-42.2,0-83.5,14.6-116.3,41c-1.3,1-2,2.5-2.1,4.1
		c-0.1,1.6,0.5,3.2,1.7,4.3L190,170.2z M167,105.3l49-72.8c5.6,1.1,11.2,2.5,16.7,4.2l-53.6,80.7L167,105.3z M186,29.6
		c1.5,0,2.9,0,4.4,0.1l-39.9,59.3L137.7,76l31.9-45.6C175.1,29.9,180.6,29.6,186,29.6z M136.9,37.5l-15.5,22.2L110.7,49
		c6.9-3.8,14.2-7.1,21.6-9.9C133.8,38.5,135.3,38,136.9,37.5z M282.1,142.3l31.2-46.9c2.1,3,4.2,6.2,6.1,9.4l-25.8,37.6L282.1,142.3
		L282.1,142.3z M321.2,142.3L331,128c1.9,4.7,3.5,9.4,4.9,14.3H321.2z M236.2,142.3l50.4-75.9c1.6,1.4,3.2,2.7,4.7,4.1
		c2.3,2.1,4.5,4.3,6.7,6.6l-43.3,65.2L236.2,142.3L236.2,142.3z M208.9,142.3h-5l-8.5-8.5l58.8-88.5c4.8,2.3,9.4,4.9,13.9,7.7
		L208.9,142.3z"/>
	<path class="st0" d="M165.6,184.4L50,68.8c-1.1-1.1-2.7-1.7-4.3-1.7c-1.6,0.1-3.1,0.9-4.1,2.1c-26.4,32.8-41,74.1-41,116.3
		c0,57.8,26.2,111.2,71.9,146.7c1,0.8,2.2,1.2,3.5,1.2c0.3,0,0.7,0,1-0.1c1.6-0.3,3-1.2,3.8-2.6l85.7-139.3
		C167.8,189.1,167.4,186.2,165.6,184.4z M131.3,192l-60.6,98.5c-9.4-10.4-17.4-21.9-23.7-34.2c-11.2-22-16.9-45.8-16.9-70.7
		c0-18.5,3.2-36.6,9.5-53.8c2.7-7.4,6-14.7,9.9-21.6L131.3,192z"/>
	<path class="st0" d="M364.8,199.2h-168c-2,0-3.8,1-4.8,2.7L104,345c-0.8,1.4-1.1,3-0.6,4.6c0.5,1.5,1.6,2.8,3,3.5
		c25,11.9,51.8,17.9,79.6,17.9c46.2,0,90.3-16.8,124.3-47.3c33.9-30.5,55.3-72.5,60.2-118.2c0.2-1.6-0.3-3.2-1.4-4.4
		C368,199.9,366.4,199.2,364.8,199.2z"/>
</g>
</svg>
